<svg version="1.1" xmlns="http://www.w3.org/2000/svg" xmlns:xlink="http://www.w3.org/1999/xlink" width="63.05318" height="81.73777" viewBox="0,0,63.05318,81.73777"><g transform="translate(-205.47341,-253.13112)"><g data-paper-data="{&quot;isPaintingLayer&quot;:true}" stroke="none" stroke-width="1" stroke-linecap="butt" stroke-linejoin="miter" stroke-miterlimit="10" stroke-dasharray="" stroke-dashoffset="0" style="mix-blend-mode: normal"><g data-paper-data="{&quot;index&quot;:null}"><path d="M231.89851,306.90466l-5.37295,0.73068l-8.06736,-1.58314l-5.51971,-3.10541l-3.33618,-3.16629l-2.54765,-4.93212l-0.97059,-5.06729l0.60646,-5.10138l0.60708,-2.80095l3.51825,-4.87122l7.46027,-3.59253l7.44384,-1.94849l7.10346,-0.54802l6.86477,0.97424l6.30823,2.25295l6.01292,5.34312l3.73075,8.84797l-2.58601,9.19078l-5.3072,5.43446l-9.79663,3.5773l-6.15175,0.36534" fill="#ffffff" fill-rule="evenodd"/><path d="M232.33388,253.64088l2.8655,0.54801l2.77538,2.00938l0.54619,2.46605l-2.10742,3.24241l-3.59009,0.77635l-3.71979,-1.64403l-0.50052,-3.74476l1.77434,-2.74006l1.95641,-0.91335" fill="#ef463c" fill-rule="evenodd"/><path d="M212.08907,281.90919c0.31846,0.04567 8.78038,1.91805 8.78038,1.91805l6.45985,-1.18736l9.08422,0.77635l2.56226,0.95902h12.05506v5.6628l-0.22712,3.27346l-1.72868,3.75937c0,0 -1.31949,1.23303 -1.45588,1.2787c-0.13639,0.04567 -2.00146,-1.50703 -2.00146,-1.50703l-1.50156,-1.68971l-0.77331,1.96371l-0.86403,2.87707l-3.23023,4.2471l-3.45735,2.05505l1.20867,1.5527l6.38861,0.54801h5.82294l4.86757,-2.00938l3.91281,1.24825l1.86507,-1.29391l2.18352,-3.56209l2.45632,-3.79042l1.54722,-0.95902l1.54662,0.54801l0.40918,1.4157l-0.45485,3.1054l-2.31992,4.1101l-3.04816,3.1054l-1.77434,1.00469l0.54618,11.18859l-0.7733,4.84078c0,0 -1.45589,4.5211 -1.54661,4.6581c-0.09134,0.137 -1.54722,1.5527 -1.54722,1.5527l-4.09427,0.45668l-3.68508,-1.64403l-2.18353,-0.137l-2.31992,-1.55271l-0.22773,-2.32905l0.59186,-4.97778l0.49991,-1.23303l-2.54765,-0.04567l-5.77727,-1.00469l-2.91177,-0.95902l-1.60264,8.31153l-1.84985,2.87706l-2.64325,0.86768l-4.09426,-0.68501l-1.86507,-1.59837l-1.72929,0.04567l-2.13786,-0.77635l-0.40918,-2.19206l0.72764,-2.83139l1.00104,-4.20143l1.13682,-3.79042l1.31949,-3.15107l-0.31846,-3.05973l-0.72764,-3.24241l1.91074,0.137l-1.04671,-1.37004c0,0 -4.23066,-2.64873 -4.32138,-2.78573c-0.09133,-0.13701 -2.59332,-4.84078 -2.59332,-4.84078l-0.54618,-3.42508l-2.54765,1.78104l-2.95684,-0.54801v-4.97779l1.54662,-6.94149z" fill="#fcb322" fill-rule="evenodd"/><path d="M242.93366,300.08494h4.36705l5.95934,-0.36534l0.81897,2.00938c0,0 -0.04506,3.47074 0,3.65341c0.04567,0.18267 -0.72764,1.78105 -0.72764,1.78105l-5.27736,1.37003l0.04566,1.05035l0.59125,3.42508v3.74475l-1.00104,3.79042l-0.86404,1.09602l-3.13889,0.59368l-4.82251,-0.82202l1.68362,-2.92273l0.81836,-2.55739l0.04567,-3.15107l-1.36455,-4.33843l-4.36766,-1.68971l2.86611,-2.32906c0,0 2.2292,-1.73537 2.32053,-1.87238c0.09073,-0.137 0.86403,-2.00938 0.86403,-2.00938z" fill="#71cbd2" fill-rule="evenodd"/><path d="M253.6747,299.22091c0.7593,0.99129 1.23364,2.16769 1.35664,3.4129c0.05419,0.54741 0.08159,1.17518 0.00365,1.71893c-0.0682,0.47738 -0.45789,1.03697 -0.05662,1.45346c0.34951,0.3629 1.42118,0.59551 1.82671,0.79949c0.74712,0.37509 1.03757,0.74346 1.7372,0.15892c0.62108,-0.51696 1.16361,-1.163 1.66231,-1.79626c1.01322,-1.28904 1.84193,-2.7218 2.53182,-4.20813c0.55897,-1.20441 1.17153,-2.36376 2.3254,-3.15838c1.0802,-0.74408 1.9765,-0.66431 2.76503,0.38787c0.55653,0.74226 0.80436,1.44432 0.65883,2.49285c-0.28801,2.08245 -0.90666,3.96091 -2.04408,5.71334c-1.29331,1.99111 -2.60611,3.94204 -4.80851,5.05815c-0.38543,0.19485 -0.44024,0.48773 -0.35012,0.95598c0.29228,1.51738 0.57054,3.04695 0.68258,4.58504c0.09438,1.28539 -0.00182,2.5921 -0.10291,3.88175c-0.17536,2.22432 -0.36656,4.44986 -0.99617,6.60843c-0.18815,0.64544 -0.3562,1.30061 -0.47129,1.96249c-0.36473,2.09828 -1.14047,3.90124 -3.14986,4.96317c-0.84028,0.44389 -1.70919,0.54192 -2.6262,0.62473c-2.0313,0.1845 -3.76972,-0.39883 -5.27858,-1.75608c-0.12848,-0.11569 -0.38056,-0.21738 -0.52609,-0.17049c-1.95702,0.63265 -3.64977,0.00427 -4.69403,-2.14942c-0.1918,-0.39578 -0.31176,-0.87683 -0.30079,-1.31463c0.04688,-1.81696 0.25817,-3.6114 0.85794,-5.34921c0.13518,-0.39213 0.02009,-0.87074 0.02009,-1.34446c-2.83566,0.19972 -5.45577,-0.32637 -8.04178,-1.09968c-0.48286,-0.14431 -0.98095,-0.23808 -1.4632,-0.35255c-0.20763,1.02722 -0.3221,1.92352 -0.57541,2.77843c-0.62839,2.11411 -0.82811,4.34939 -1.89735,6.34294c-0.75261,1.40474 -1.90526,2.17561 -3.38428,2.51294c-0.60769,0.13883 -1.24886,0.14796 -1.87664,0.17354c-2.05566,0.08524 -3.89759,-0.34707 -5.1842,-2.15917c-0.10717,-0.15101 -0.44754,-0.17597 -0.68258,-0.18694c-0.54923,-0.02497 -1.14108,0.123 -1.6416,-0.0341c-0.73738,-0.23199 -1.74207,-0.23929 -1.99294,-1.18005c-0.24113,-0.90361 -0.50295,-1.90891 -0.34038,-2.79243c0.4238,-2.30166 1.03696,-4.57104 1.65013,-6.83372c0.42623,-1.57279 0.95476,-3.12002 1.48025,-4.6642c0.30506,-0.89448 0.70207,-1.75546 1.03696,-2.64081c0.04567,-0.12117 -0.02558,-0.29044 -0.05298,-0.43536c-0.25269,-1.34385 -0.49443,-2.68953 -0.77087,-4.0279c-0.06455,-0.31358 0.00122,-0.64605 -0.54071,-0.8068c-1.28478,-0.38056 -2.54339,-0.88412 -3.76241,-1.44797c-2.62315,-1.21232 -4.8085,-3.04634 -6.75213,-5.15314c-0.83967,-0.91031 -1.65135,-1.91561 -2.18779,-3.01955c-0.85368,-1.75608 -1.55392,-3.57061 -1.82367,-5.57511c-0.37813,-2.80461 -0.78,-5.82172 0.14553,-8.52038c0.14675,-0.42806 0.25331,-0.86829 0.40553,-1.3067c0.63509,-1.82976 2.00146,-3.91221 3.46526,-5.16533c0.76052,-0.65031 1.46502,-1.41265 2.32297,-1.89551c2.43988,-1.37308 4.99666,-2.49467 7.66244,-3.38672c2.26573,-0.75808 4.5966,-1.10211 6.93601,-1.43457c1.31889,-0.18754 2.65421,-0.25452 3.97857,-0.37509c0.17476,-2.44352 0.34708,-4.86818 0.52061,-7.29527c-0.43293,-0.14492 -0.79523,-0.2667 -1.15753,-0.38787c-1.42422,-0.47981 -2.38811,-1.91439 -2.19509,-3.39524c0.12482,-0.95902 0.23077,-1.95884 0.59002,-2.83992c0.57724,-1.41448 1.56489,-2.50198 3.16569,-2.84662c1.19223,-0.25756 2.35036,-0.22103 3.53894,0.10717c2.5446,0.70267 4.80546,3.71614 3.33314,6.50734c-0.91823,1.74146 -2.06296,3.11149 -4.213,3.20466c-0.50295,0.02131 -1.00286,0.13518 -1.5868,0.2186c-0.2801,2.23893 -0.55775,4.45473 -0.82932,6.62303c2.1001,0.32394 4.03155,0.65152 5.9709,0.91579c3.52981,0.48164 6.8733,1.43944 9.68034,3.76607c1.1563,0.95841 2.32784,1.91683 3.36784,2.99641c1.57279,1.6343 2.60976,3.64489 3.58339,5.67741c1.42361,2.97023 1.98746,6.06407 1.18432,9.31074c-0.33246,1.34568 -0.71364,2.69196 -1.22998,3.9737c-0.30445,0.75504 -0.91823,1.38525 -1.43518,2.13237c0.23564,0.19546 0.44267,0.31237 0.57602,0.48713zM213.83358,295.8896c-1.0534,0.75322 -2.19388,1.02356 -3.3855,0.99982c-0.95172,-0.01827 -1.83462,-0.74225 -1.94666,-1.69519c-0.22407,-1.91682 -0.03532,-3.71431 0.05053,-5.63783c0.08829,-1.98015 0.37509,-3.96578 1.18127,-5.79188c0.36108,-0.81836 0.90118,-2.06235 1.79687,-2.25111c1.20867,-0.25452 2.82714,0.08098 4.00293,0.37995c0.83055,0.21129 1.67936,0.31419 2.50016,0.53705c1.27382,0.34525 2.64203,0.53279 3.94204,0.75443c1.06558,0.18084 2.30226,-0.59672 3.35384,-0.87743c2.40699,-0.64179 4.88583,-0.70876 7.35555,-0.42867c2.04104,0.23138 3.98345,0.80984 5.74318,1.93509c0.23503,0.1504 0.60829,0.13091 0.91457,0.11508c1.98989,-0.1029 3.97797,-0.26182 5.96969,-0.33246c1.44005,-0.05176 2.8862,-0.03044 4.32686,0.02131c1.50642,0.05419 1.94301,0.44754 2.02034,1.91805c0.09012,1.73294 0.09925,3.47197 0.09925,5.20856c-0.00061,1.76338 -0.56567,3.40255 -1.21903,5.01188c-0.22834,0.56324 -0.4585,1.12891 -0.73616,1.66901c-0.4786,0.9304 -1.32315,1.24764 -2.30896,1.34019c-0.84211,0.07976 -1.28782,-0.53706 -1.80783,-0.99373c-0.47251,-0.41527 -0.86769,-0.91884 -1.40779,-1.50399c-0.31115,1.09298 -0.58333,2.04896 -0.88839,3.12185c1.00225,0.06393 2.02582,0.18267 3.02868,0.19363c0.54436,0.00609 2.04895,-0.1163 1.38342,0.97424c-0.38605,0.63326 -1.16178,0.35255 -1.72624,0.26488c-0.9779,-0.15222 -2.0106,-0.0548 -2.99885,-0.03593c-0.19911,0.00365 -0.49199,0.18632 -0.57541,0.36473c-0.99373,2.12629 -2.46911,3.73318 -4.71657,4.54303c-0.03836,0.014 -0.05967,0.07612 -0.21068,0.27888c1.07349,-0.24113 2.02156,-0.37813 2.91725,-0.67467c1.44858,-0.47982 2.89168,-0.99982 4.2812,-1.62638c1.04244,-0.47007 1.98441,-1.15874 2.99397,-1.70858c2.35645,-1.28357 3.83,-3.41777 5.27615,-5.55563c0.39092,-0.57724 0.52365,-1.34932 0.69536,-2.052c0.3075,-1.25312 0.73373,-2.51538 0.77879,-3.78616c0.0548,-1.53566 0.00122,-3.15229 -0.42136,-4.61244c-1.11551,-3.85375 -3.35323,-7.02065 -6.47508,-9.54943c-1.80539,-1.46258 -3.79834,-2.50198 -6.02266,-3.22901c-3.06095,-1.00042 -6.22055,-1.3134 -9.37223,-1.55575c-3.36358,-0.25817 -6.69367,0.25452 -9.98844,1.07045c-4.03093,0.99921 -7.65269,2.82165 -10.96756,5.25118c-0.88291,0.64787 -1.54235,1.69335 -2.0995,2.67369c-0.62473,1.09968 -1.10333,2.30409 -1.49425,3.51216c-0.86404,2.6737 -0.95597,5.37356 -0.43232,8.17209c0.45607,2.43865 1.39439,4.60634 2.84236,6.539c0.86586,1.15509 1.97589,2.13786 3.04086,3.12793c2.31566,2.15369 5.07825,3.49267 8.10754,4.31043c0.19667,0.05298 0.40066,0.07977 0.60282,0.10778c0.03775,0.00548 0.08342,-0.04323 0.35864,-0.19911c-4.78598,-1.88151 -7.77996,-5.08677 -8.36267,-10.29899zM229.80145,283.15744c-1.79383,0 -3.41595,0.33856 -5.15802,0.78427c-1.16909,0.29897 -2.21519,1.13012 -3.2759,1.78835c-0.62412,0.38726 -1.15204,0.92553 -1.7512,1.35481c-1.37734,0.98703 -2.53486,2.74433 -3.20526,4.29338c-0.97364,2.24989 -1.27565,4.24527 -0.6363,6.67601c0.46824,1.78287 1.25312,3.37637 2.69744,4.53328c2.10072,1.68301 4.47117,2.88864 7.11929,3.39586c2.41491,0.46276 4.86818,0.36108 7.29892,0.04993c0.67101,-0.08585 1.32558,-0.37204 1.96432,-0.62534c1.22328,-0.48651 2.49468,-0.90362 3.61993,-1.56549c0.73251,-0.43171 1.35541,-1.17153 1.82975,-1.90282c1.1691,-1.80052 2.09645,-3.74536 2.4959,-5.86861c0.14309,-0.76174 0.05176,-1.65379 -0.20763,-2.38812c-0.69597,-1.96554 -1.50704,-3.89149 -2.3455,-5.80101c-0.26243,-0.59855 -0.66919,-1.1965 -1.16057,-1.61786c-1.11246,-0.95294 -2.24746,-1.9357 -3.73135,-2.26694c-1.62273,-0.36169 -3.3033,-0.74957 -4.97535,-0.82629c-0.19302,-0.00853 -0.38666,-0.0134 -0.57846,-0.0134zM238.46005,320.62019c0.23626,-0.30811 0.53218,-0.65335 0.78366,-1.02783c1.35968,-2.01973 1.90404,-3.83304 1.73476,-6.26865c-0.05054,-0.72703 -0.06028,-1.4979 -0.3081,-2.18353c-0.19668,-0.54497 -0.37996,-1.51556 -0.81167,-1.90648c-0.37813,-0.34159 -1.0601,-0.35195 -1.6142,-0.48774c-0.37995,-0.09377 -0.766,-0.17475 -1.15326,-0.22529c-1.49729,-0.19424 -2.99276,-0.46581 -4.49553,-0.52427c-0.94502,-0.03715 -1.90038,0.27767 -2.85575,0.39031c-0.6223,0.07246 -1.25556,0.10473 -1.8809,0.08402c-0.90422,-0.02983 -1.80844,-0.0956 -2.70657,-0.19972c-0.8823,-0.1023 -1.75669,-0.27218 -2.77964,-0.43475c0.29045,1.45588 0.50539,2.94709 0.90422,4.38593c0.28132,1.01747 0.75992,1.99354 1.25556,2.93186c0.34525,0.65396 2.35037,1.8669 1.5594,2.82653c-0.34281,0.41588 -0.93528,-0.02984 -1.08568,-0.34708c0.10047,0.57298 -0.22468,1.53382 -0.35986,2.10254c-0.22956,0.9645 -0.46825,1.92657 -0.67345,2.89655c-0.3282,1.54905 -0.58089,3.11332 -0.85429,4.67394c-0.3897,2.22371 0.53584,3.56269 2.67979,4.19473c1.20745,0.35621 2.36497,0.26548 3.5365,0.03349c1.90648,-0.37691 2.52877,-1.94301 3.0226,-3.52981c0.72947,-2.34366 1.34324,-4.71778 1.41022,-7.20028c0.014,-0.52853 0.22591,-1.04914 0.30567,-1.57888c0.08403,-0.55289 0.14065,-2.65177 0.94258,-2.8247c1.11003,-0.23808 0.37265,2.47275 0.32455,2.96718c-0.01705,0.17171 -0.05602,0.34099 -0.05298,0.32333c1.13621,0.33307 2.14821,0.629 3.17239,0.92858zM253.66131,307.45328c-1.40657,0.91153 -2.97022,1.12891 -4.56616,1.40048c-0.13031,0.02253 -0.27888,0.23383 -0.32272,0.38544c-0.04627,0.16014 -0.02131,0.37325 0.04749,0.53035c0.70998,1.60872 0.35012,3.324 0.42014,4.979c0.05845,1.37308 -0.14187,2.99459 -0.62656,4.28728c-0.37691,1.00469 -0.90361,1.94545 0.63083,1.46015c0.72703,-0.22956 3.42021,-1.96919 4.0078,-1.2379c0.15893,0.1979 0.36108,0.5267 0.29288,0.70389c-0.1023,0.26548 -0.38665,0.52792 -0.6564,0.64483c-0.55593,0.24113 -1.15753,0.37143 -1.72989,0.57724c-0.14309,0.05115 -0.33551,0.20033 -0.35499,0.32759c-0.20581,1.35298 -0.37752,2.71145 -0.56567,4.06747c-0.19911,1.43275 -0.47007,2.86124 -0.57663,4.30069c-0.03654,0.49443 0.23077,1.08689 0.52731,1.51799c1.47294,2.14029 3.58826,2.44717 5.90635,1.86263c1.21902,-0.30689 2.04409,-1.2452 2.39542,-2.39786c0.72825,-2.38507 1.61969,-4.73361 1.71041,-7.28857c0.05784,-1.64282 0.38727,-3.27407 0.48043,-4.9175c0.12482,-2.19632 -0.13335,-4.40663 -0.76174,-6.47995c-0.4579,-1.50947 -1.84985,-3.27224 -3.09566,-4.18804c-0.18511,-0.13578 -0.35134,-0.25087 -0.52305,-0.35255c-1.01991,-0.60099 -1.68179,-0.80375 -2.6396,-0.18267zM250.38724,286.0546c-0.0615,-0.8074 -0.58393,-1.16665 -1.32315,-1.22754c-2.42769,-0.20094 -4.856,-0.36595 -7.28796,-0.01036c-1.02479,0.14979 -0.50965,0.87987 -0.20216,1.50887c0.44511,0.91092 0.72338,1.89429 1.05767,2.84906c1.05036,3.00128 1.78834,5.89539 4.49735,7.79943c0.62108,0.43719 1.17214,0.29837 1.52774,-0.38908c1.10455,-2.13116 1.9491,-4.34453 1.98137,-6.8118c-0.08281,-1.23972 -0.1571,-2.47945 -0.25087,-3.71857zM216.5091,283.58368c-1.18492,-0.18146 -3.30695,-1.04488 -4.43159,-0.3075c-0.79096,0.51878 -1.16057,1.82184 -1.42848,2.6603c-0.33489,1.04487 -0.32455,2.14638 -0.57176,3.18456c-0.3964,1.66839 -0.44693,3.39646 -0.17536,5.09043c0.19546,1.22329 1.532,1.54478 2.68039,0.88839c1.40961,-0.80618 1.79809,-2.12324 2.21153,-3.56269c0.61073,-2.12324 1.52713,-4.12471 3.4263,-5.48195c0.48712,-0.34769 0.89996,-0.8001 1.40657,-1.2586c-0.98155,-0.76235 -2.02095,-1.04366 -3.11759,-1.21293zM237.71049,257.329c-0.53461,-1.48451 -1.69397,-2.44657 -3.33131,-2.72789c-1.70432,-0.29227 -3.24484,-0.14065 -4.3707,1.38099c-0.87378,1.18127 -0.92614,3.71857 -0.08464,4.73544c0.12848,0.15527 0.2801,0.3422 0.45668,0.39761c1.20806,0.37813 2.42525,0.72521 3.16203,0.94198c2.7833,0.05298 4.92846,-2.62011 4.16794,-4.72814zM241.99716,307.63778c2.08184,0.0688 4.16977,0.15893 6.24552,0.05298c1.27139,-0.06576 2.59941,-0.30202 3.76363,-0.79341c0.96085,-0.40492 1.63186,-1.29088 1.65013,-2.55313c0.01887,-1.31949 0.0207,-2.6055 -0.61073,-3.79834c-0.137,-0.25878 -0.38057,-0.45972 -0.57542,-0.68684c-0.16014,0.18998 -0.29836,0.40614 -0.4853,0.56385c-0.81898,0.6911 -1.6209,1.40717 -2.48554,2.03739c-1.91561,1.3956 -4.05408,2.37959 -6.27109,3.17786c-1.69092,0.6089 -3.41412,1.12647 -5.16532,1.69823c1.3061,0.10351 2.61828,0.25878 3.93412,0.30141zM260.82322,310.58487c1.08811,-0.98399 2.29861,-1.83341 3.19126,-2.93978c1.62212,-2.01121 2.85758,-4.27511 3.13585,-6.91836c0.05358,-0.50234 -0.11752,-1.06802 -0.31785,-1.54844c-0.29775,-0.71546 -1.04305,-0.84333 -1.6008,-0.3008c-0.82446,0.80131 -1.34933,1.79201 -1.79748,2.85393c-0.39335,0.93162 -0.89143,1.83706 -1.46867,2.66699c-0.79766,1.14596 -1.70798,2.21276 -2.58114,3.30513c-0.14005,0.17536 -0.33734,0.30385 -0.50113,0.44754c0.64544,0.80923 1.25556,1.57584 1.93997,2.43379zM221.22079,318.29297c-0.69658,2.23406 -1.40595,4.46874 -1.97162,6.73812c-0.2326,0.93466 -0.23625,1.97528 -0.11082,2.93734c0.13761,1.04732 1.24947,1.62273 2.27547,1.34142c0.15649,-0.04323 0.36351,-0.27036 0.37447,-0.42441c0.05784,-0.83846 -0.01705,-1.69336 0.10412,-2.52086c0.1918,-1.31097 0.52609,-2.60001 0.75686,-3.90611c0.24722,-1.39682 0.44998,-2.80157 0.66066,-4.20508c0.07672,-0.50905 0.25087,-1.05035 0.15101,-1.52835c-0.14553,-0.69598 -0.49869,-1.3475 -0.76296,-2.0173c-0.06759,0.00061 -0.13518,0.00061 -0.20276,0.00061c-0.42806,1.19406 -0.89814,2.37472 -1.27444,3.58461zM248.44423,322.08582c-3.06156,0.92432 -2.94526,3.60288 -3.11697,6.25526c-0.07977,1.23485 0.37022,2.33332 1.37734,3.08166c0.35255,0.26122 0.889,0.32455 1.34994,0.35803c0.1437,0.01035 0.44145,-0.36717 0.45424,-0.58089c0.09134,-1.46076 0.07307,-2.92943 0.19119,-4.38653c0.12908,-1.5935 0.36778,-3.17726 0.57359,-4.89254c-0.32455,0.06211 -0.58394,0.09073 -0.82933,0.16501zM240.33608,320.35654c-0.26061,0.6771 -0.18633,0.80984 0.54253,0.97303c1.20928,0.27096 2.48432,0.12665 3.71065,0.12787c0.66857,0.00061 1.98442,-0.39944 2.21885,-1.13013c0.20824,-0.64666 -0.35682,-0.59795 -0.89144,-0.73007c-0.74286,-0.1845 -1.48207,-0.38239 -2.23284,-0.53157c-0.56385,-0.11143 -1.77739,-0.64057 -2.28643,-0.39701c-0.05723,0.0274 -0.11448,0.07003 -0.17171,0.12422c-0.41406,0.39274 -0.68745,1.0394 -0.88961,1.56366zM248.08193,311.9756c-0.97546,-0.07733 -1.89613,-0.1437 -2.81557,-0.22529c-0.83298,-0.07368 -1.669,-0.13031 -2.49284,-0.26122c-0.49016,-0.07794 -0.66979,0.0682 -0.66249,0.54132c0.00914,0.60281 0.00244,1.20441 0.00244,1.77373c2.04469,0.3008 3.91768,0.57724 5.96847,0.87926c0,-0.9572 0,-1.83402 0,-2.70779zM245.9526,315.59979c-0.274,-0.02619 -4.0145,-0.30445 -4.01389,-0.34525c-0.0073,0.49504 -0.28801,0.93649 -0.33185,1.42544c-0.05541,0.61255 -0.02314,0.5267 0.51026,0.66127c1.06923,0.26975 2.15369,0.39761 3.20587,0.72338c0.46459,0.1437 1.7305,0.65518 2.19144,0.35499c0.39396,-0.25817 0.55654,-1.87847 0.41832,-2.27852c-0.03897,-0.11264 -0.11326,-0.19971 -0.2119,-0.2673c-0.41222,-0.28253 -1.25434,-0.22408 -1.76826,-0.27401zM241.06798,309.00172c-0.15101,0.01826 0.28983,0.83298 0.35742,0.90239c0.1845,0.19059 0.48408,0.30811 0.73007,0.38544c0.56811,0.17901 1.19711,0.09438 1.78165,0.1437c1.34385,0.11387 2.5848,0.13396 3.91342,0.11204c-0.16014,-0.38543 -0.20155,-0.90605 -0.51757,-1.20563c-0.30933,-0.29228 -0.91823,-0.35621 -1.31401,-0.36108c-1.59533,-0.01766 -3.34774,-0.19789 -4.92419,0.02009c-0.00853,0.00122 -0.01766,0.00243 -0.02679,0.00305z" fill="#2a3d98" fill-rule="nonzero"/></g><g data-paper-data="{&quot;index&quot;:null}" fill="#2a3d98" fill-rule="evenodd"><path d="M225.49468,295.55105c-3.55173,0.98216 -5.65244,-1.8462 -5.92949,-4.7263c-0.04749,-0.49687 0.25513,-0.9572 0.91213,-1.03392c0.62595,-0.07307 0.69659,0.25026 0.78792,0.74712c0.12969,0.71059 0.25939,1.46319 0.5949,2.08671c1.12647,2.09706 3.97674,2.21884 5.1568,0.27583c0.23626,-0.3897 0.30871,-0.67893 -0.09012,-1.05705c-0.20094,-0.19059 -0.26609,-0.65762 -0.19667,-0.95476c0.04627,-0.19911 0.44145,-0.4585 0.66979,-0.44815c0.81898,0.03653 1.64465,0.12604 2.44353,0.30384c0.2874,0.06516 0.6771,0.40857 0.72094,0.67467c0.07733,0.47251 -0.28071,0.78792 -0.78001,0.84637c-0.26243,0.02983 -0.5267,0.0347 -0.80253,0.05175c0.20763,1.16483 0.86099,1.91379 1.73902,2.50381c1.05401,0.70937 2.32297,0.72582 3.20587,-0.25756c0.30445,-0.33916 1.59594,-3.18578 2.42465,-1.84497c0.32089,0.51939 -0.69293,1.70797 -1.01869,2.1683c-0.85429,1.20441 -2.00634,2.02765 -3.49693,1.95092c-1.67631,-0.08646 -3.0573,-0.88412 -3.9463,-2.32722c-0.83115,0.36838 -1.58254,0.81654 -2.39481,1.04062z"/><path d="M225.69744,287.89471c0.08098,0.4993 -0.04262,1.32559 -0.63874,1.44432c-0.81897,0.16257 -1.25434,-0.77088 -0.93589,-1.45528c0.23565,-0.506 0.9846,-0.75139 1.36456,-0.40796c0.10412,0.09316 0.18023,0.23077 0.21007,0.41892z"/><path d="M231.75176,289.28788c-0.28862,-0.04201 -0.70085,-0.36047 -0.76174,-0.62351c-0.12848,-0.55471 0.506,-1.36212 0.96816,-1.34933c0.60951,0.01705 0.78305,0.47494 0.86525,0.93527c0.01035,0.52427 -0.54314,1.11368 -1.07167,1.03757z"/></g></g></g></svg>